<svg width="81" height="29" viewBox="0 0 81 29" fill="none" xmlns="http://www.w3.org/2000/svg">
<path d="M9.24673 13.8606C10.2029 13.8606 11.0332 13.7449 11.7377 13.5135C12.4548 13.2821 13.0398 12.9655 13.4928 12.5636C13.9582 12.1495 14.3042 11.6624 14.5307 11.1022C14.7571 10.5419 14.8704 9.92693 14.8704 9.2571C14.8704 7.91746 14.4112 6.88836 13.4928 6.16982C12.5869 5.45129 11.1968 5.09202 9.32221 5.09202H6.07636V13.8606H9.24673ZM22.3056 27.7077H17.7199C16.8518 27.7077 16.2228 27.3789 15.8328 26.7212L10.0959 18.2632C9.88206 17.9465 9.64303 17.7212 9.37883 17.5873C9.12721 17.4533 8.74979 17.3863 8.24655 17.3863H6.07636V27.7077H1V1.29229H9.32221C11.1716 1.29229 12.7568 1.48105 14.0778 1.85859C15.4113 2.22395 16.4996 2.74154 17.3425 3.41137C18.198 4.08119 18.827 4.88498 19.2296 5.82273C19.6322 6.74831 19.8335 7.77131 19.8335 8.89174C19.8335 9.78078 19.6951 10.6211 19.4183 11.4127C19.1541 12.2043 18.7641 12.9229 18.2483 13.5683C17.7451 14.2138 17.116 14.7801 16.3612 15.2673C15.6189 15.7544 14.7697 16.138 13.8136 16.4181C14.1407 16.6008 14.4426 16.82 14.7194 17.0758C14.9962 17.3193 15.2478 17.6116 15.4742 17.9526L22.3056 27.7077Z" fill="black"/>
<path d="M30.3477 27.7077H25.2525V1.29229H30.3477V27.7077Z" fill="black"/>
<path d="M50.9881 6.09675C50.8372 6.3525 50.6736 6.54127 50.4975 6.66306C50.3339 6.77267 50.1263 6.82747 49.8747 6.82747C49.6105 6.82747 49.3212 6.73613 49.0066 6.55345C48.7047 6.35859 48.3399 6.14547 47.9121 5.91407C47.4844 5.68268 46.9811 5.47564 46.4024 5.29296C45.8363 5.0981 45.1632 5.00068 44.3832 5.00068C43.6787 5.00068 43.0622 5.08593 42.5338 5.25643C42.0054 5.41475 41.5588 5.64005 41.194 5.93234C40.8417 6.22463 40.5775 6.57781 40.4014 6.99188C40.2252 7.39377 40.1372 7.83829 40.1372 8.32544C40.1372 8.94655 40.3133 9.46414 40.6656 9.87821C41.0304 10.2923 41.5085 10.6455 42.0998 10.9378C42.6911 11.23 43.3642 11.4919 44.119 11.7233C44.8739 11.9547 45.6476 12.2043 46.4402 12.4723C47.2328 12.728 48.0065 13.0325 48.7613 13.3857C49.5162 13.7267 50.1892 14.1651 50.7805 14.7009C51.3718 15.2246 51.8436 15.8701 52.1959 16.6373C52.5607 17.4046 52.7432 18.3363 52.7432 19.4323C52.7432 20.6258 52.5293 21.7463 52.1015 22.7936C51.6864 23.8288 51.0699 24.7361 50.2521 25.5156C49.447 26.2828 48.4594 26.8917 47.2894 27.3424C46.1194 27.7808 44.7795 28 43.2698 28C42.4017 28 41.5462 27.9147 40.7033 27.7442C39.8604 27.5859 39.0489 27.3545 38.2689 27.0501C37.5015 26.7456 36.7781 26.3802 36.0987 25.954C35.4194 25.5277 34.8155 25.0528 34.2871 24.5291L35.7779 22.1725C35.9037 22.002 36.0673 21.862 36.2686 21.7524C36.4699 21.6306 36.6837 21.5697 36.9102 21.5697C37.2247 21.5697 37.5644 21.6976 37.9292 21.9533C38.2941 22.1969 38.7281 22.4709 39.2314 22.7754C39.7346 23.0798 40.3196 23.3599 40.9864 23.6157C41.6657 23.8593 42.4772 23.9811 43.4208 23.9811C44.8676 23.9811 45.9873 23.6522 46.7798 22.9946C47.5724 22.3248 47.9687 21.3687 47.9687 20.1265C47.9687 19.4323 47.7863 18.866 47.4215 18.4276C47.0692 17.9892 46.5974 17.6238 46.0061 17.3315C45.4148 17.0271 44.7418 16.7713 43.9869 16.5643C43.2321 16.3572 42.4646 16.1319 41.6846 15.8884C40.9046 15.6448 40.1372 15.3525 39.3823 15.0115C38.6275 14.6705 37.9544 14.226 37.3631 13.6779C36.7718 13.1299 36.2937 12.4479 35.9289 11.6319C35.5766 10.8038 35.4005 9.78687 35.4005 8.58119C35.4005 7.61908 35.5955 6.68133 35.9855 5.76793C36.3881 4.85453 36.9668 4.04465 37.7217 3.33829C38.4765 2.63193 39.4075 2.06563 40.5146 1.63938C41.6217 1.21313 42.8924 1 44.3266 1C45.9369 1 47.4215 1.24357 48.7802 1.73072C50.1389 2.21786 51.2964 2.89986 52.2525 3.77672L50.9881 6.09675Z" fill="black"/>
<path d="M71.0362 17.7334L67.7148 8.94655C67.5513 8.55683 67.3814 8.09405 67.2053 7.55819C67.0292 7.02233 66.853 6.44384 66.6769 5.82273C66.5134 6.44384 66.3435 7.02842 66.1674 7.57645C65.9913 8.11231 65.8214 8.58119 65.6579 8.98308L62.3554 17.7334H71.0362ZM80 27.7077H76.0748C75.6345 27.7077 75.2759 27.6042 74.9991 27.3972C74.7223 27.1779 74.5148 26.91 74.3764 26.5934L72.3383 21.2043H61.0344L58.9963 26.5934C58.8957 26.8735 58.7007 27.1292 58.4113 27.3606C58.1219 27.592 57.7634 27.7077 57.3356 27.7077H53.3727L64.1104 1.29229H69.2811L80 27.7077Z" fill="black"/>
<path d="M9.24673 13.8606C10.2029 13.8606 11.0332 13.7449 11.7377 13.5135C12.4548 13.2821 13.0398 12.9655 13.4928 12.5636C13.9582 12.1495 14.3042 11.6624 14.5307 11.1022C14.7571 10.5419 14.8704 9.92693 14.8704 9.2571C14.8704 7.91746 14.4112 6.88836 13.4928 6.16982C12.5869 5.45129 11.1968 5.09202 9.32221 5.09202H6.07636V13.8606H9.24673ZM22.3056 27.7077H17.7199C16.8518 27.7077 16.2228 27.3789 15.8328 26.7212L10.0959 18.2632C9.88206 17.9465 9.64303 17.7212 9.37883 17.5873C9.12721 17.4533 8.74979 17.3863 8.24655 17.3863H6.07636V27.7077H1V1.29229H9.32221C11.1716 1.29229 12.7568 1.48105 14.0778 1.85859C15.4113 2.22395 16.4996 2.74154 17.3425 3.41137C18.198 4.08119 18.827 4.88498 19.2296 5.82273C19.6322 6.74831 19.8335 7.77131 19.8335 8.89174C19.8335 9.78078 19.6951 10.6211 19.4183 11.4127C19.1541 12.2043 18.7641 12.9229 18.2483 13.5683C17.7451 14.2138 17.116 14.7801 16.3612 15.2673C15.6189 15.7544 14.7697 16.138 13.8136 16.4181C14.1407 16.6008 14.4426 16.82 14.7194 17.0758C14.9962 17.3193 15.2478 17.6116 15.4742 17.9526L22.3056 27.7077Z" stroke="#333333"/>
<path d="M30.3477 27.7077H25.2525V1.29229H30.3477V27.7077Z" stroke="#333333"/>
<path d="M50.9881 6.09675C50.8372 6.3525 50.6736 6.54127 50.4975 6.66306C50.3339 6.77267 50.1263 6.82747 49.8747 6.82747C49.6105 6.82747 49.3212 6.73613 49.0066 6.55345C48.7047 6.35859 48.3399 6.14547 47.9121 5.91407C47.4844 5.68268 46.9811 5.47564 46.4024 5.29296C45.8363 5.0981 45.1632 5.00068 44.3832 5.00068C43.6787 5.00068 43.0622 5.08593 42.5338 5.25643C42.0054 5.41475 41.5588 5.64005 41.194 5.93234C40.8417 6.22463 40.5775 6.57781 40.4014 6.99188C40.2252 7.39377 40.1372 7.83829 40.1372 8.32544C40.1372 8.94655 40.3133 9.46414 40.6656 9.87821C41.0304 10.2923 41.5085 10.6455 42.0998 10.9378C42.6911 11.23 43.3642 11.4919 44.119 11.7233C44.8739 11.9547 45.6476 12.2043 46.4402 12.4723C47.2328 12.728 48.0065 13.0325 48.7613 13.3857C49.5162 13.7267 50.1892 14.1651 50.7805 14.7009C51.3718 15.2246 51.8436 15.8701 52.1959 16.6373C52.5607 17.4046 52.7432 18.3363 52.7432 19.4323C52.7432 20.6258 52.5293 21.7463 52.1015 22.7936C51.6864 23.8288 51.0699 24.7361 50.2521 25.5156C49.447 26.2828 48.4594 26.8917 47.2894 27.3424C46.1194 27.7808 44.7795 28 43.2698 28C42.4017 28 41.5462 27.9147 40.7033 27.7442C39.8604 27.5859 39.0489 27.3545 38.2689 27.0501C37.5015 26.7456 36.7781 26.3802 36.0987 25.954C35.4194 25.5277 34.8155 25.0528 34.2871 24.5291L35.7779 22.1725C35.9037 22.002 36.0673 21.862 36.2686 21.7524C36.4699 21.6306 36.6837 21.5697 36.9102 21.5697C37.2247 21.5697 37.5644 21.6976 37.9292 21.9533C38.2941 22.1969 38.7281 22.4709 39.2314 22.7754C39.7346 23.0798 40.3196 23.3599 40.9864 23.6157C41.6657 23.8593 42.4772 23.9811 43.4208 23.9811C44.8676 23.9811 45.9873 23.6522 46.7798 22.9946C47.5724 22.3248 47.9687 21.3687 47.9687 20.1265C47.9687 19.4323 47.7863 18.866 47.4215 18.4276C47.0692 17.9892 46.5974 17.6238 46.0061 17.3315C45.4148 17.0271 44.7418 16.7713 43.9869 16.5643C43.2321 16.3572 42.4646 16.1319 41.6846 15.8884C40.9046 15.6448 40.1372 15.3525 39.3823 15.0115C38.6275 14.6705 37.9544 14.226 37.3631 13.6779C36.7718 13.1299 36.2937 12.4479 35.9289 11.6319C35.5766 10.8038 35.4005 9.78687 35.4005 8.58119C35.4005 7.61908 35.5955 6.68133 35.9855 5.76793C36.3881 4.85453 36.9668 4.04465 37.7217 3.33829C38.4765 2.63193 39.4075 2.06563 40.5146 1.63938C41.6217 1.21313 42.8924 1 44.3266 1C45.9369 1 47.4215 1.24357 48.7802 1.73072C50.1389 2.21786 51.2964 2.89986 52.2525 3.77672L50.9881 6.09675Z" stroke="#333333"/>
<path d="M71.0362 17.7334L67.7148 8.94655C67.5513 8.55683 67.3814 8.09405 67.2053 7.55819C67.0292 7.02233 66.853 6.44384 66.6769 5.82273C66.5134 6.44384 66.3435 7.02842 66.1674 7.57645C65.9913 8.11231 65.8214 8.58119 65.6579 8.98308L62.3554 17.7334H71.0362ZM80 27.7077H76.0748C75.6345 27.7077 75.2759 27.6042 74.9991 27.3972C74.7223 27.1779 74.5148 26.91 74.3764 26.5934L72.3383 21.2043H61.0344L58.9963 26.5934C58.8957 26.8735 58.7007 27.1292 58.4113 27.3606C58.1219 27.592 57.7634 27.7077 57.3356 27.7077H53.3727L64.1104 1.29229H69.2811L80 27.7077Z" stroke="#333333"/>
</svg>
